<svg xmlns="http://www.w3.org/2000/svg" xmlns:xlink="http://www.w3.org/1999/xlink" width="559" zoomAndPan="magnify" viewBox="0 0 419.25 297.75" height="397" preserveAspectRatio="xMidYMid meet" version="1.0"><defs><clipPath id="id1"><path d="M 136 22 L 324.882812 22 L 324.882812 294 L 136 294 Z M 136 22 " clip-rule="nonzero"/></clipPath><clipPath id="id2"><path d="M 100.019531 20 L 268 20 L 268 296 L 100.019531 296 Z M 100.019531 20 " clip-rule="nonzero"/></clipPath></defs><g clip-path="url(#id1)"><path fill="#4d6d49" d="M 324.050781 52.054688 C 324.867188 50.742188 324.464844 49.015625 323.152344 48.199219 C 321.835938 47.382812 320.109375 47.785156 319.292969 49.101562 L 276.722656 117.636719 C 276.253906 113.367188 274.746094 109.238281 272.300781 105.648438 L 310.730469 43.785156 C 311.546875 42.46875 311.144531 40.742188 309.828125 39.925781 C 308.515625 39.113281 306.789062 39.515625 305.972656 40.828125 L 268.46875 101.199219 C 267.25 100.070312 265.910156 99.035156 264.445312 98.128906 C 262.980469 97.214844 261.460938 96.476562 259.902344 95.882812 L 297.410156 35.511719 C 298.222656 34.199219 297.820312 32.472656 296.507812 31.65625 C 295.191406 30.835938 293.464844 31.242188 292.648438 32.558594 L 254.21875 94.421875 C 249.910156 93.820312 245.542969 94.300781 241.511719 95.773438 L 284.085938 27.238281 C 284.898438 25.925781 284.496094 24.199219 283.183594 23.382812 C 281.867188 22.570312 280.140625 22.972656 279.324219 24.285156 L 228.320312 106.394531 L 228.296875 106.4375 L 228.195312 106.597656 C 222.34375 116.015625 223.167969 127.6875 229.367188 136.101562 C 202.457031 176.234375 163.738281 235.382812 138.605469 272.65625 C 134.828125 278.175781 137.597656 286.273438 144.789062 290.738281 C 151.988281 295.207031 160.472656 294.101562 163.75 288.265625 C 186.027344 249.222656 221.894531 188.296875 245.949219 146.394531 C 256.238281 148.21875 267.070312 143.785156 272.917969 134.367188 L 273.019531 134.199219 L 273.046875 134.164062 L 324.050781 52.054688 " fill-opacity="1" fill-rule="nonzero"/></g><g clip-path="url(#id2)"><path fill="#a4c66f" d="M 188.769531 130.148438 C 188.144531 129.523438 187.671875 128.671875 187.304688 127.707031 C 186.566406 125.75 186.25 123.398438 185.875 121.902344 C 184.511719 116.535156 183.132812 111.15625 181.433594 105.886719 C 178.003906 95.234375 173.105469 84.984375 165.089844 77 C 160.617188 72.546875 154.59375 68.273438 148.304688 66.894531 C 170.847656 71.832031 183.632812 93.722656 191.410156 113.753906 C 192.421875 116.363281 193.296875 119.023438 193.886719 121.753906 C 194.285156 123.566406 195.261719 126.089844 195.03125 128.082031 C 194.761719 128.207031 194.480469 128.335938 194.175781 128.457031 C 192.492188 129.113281 190.414062 129.484375 188.769531 130.148438 Z M 266.476562 277.820312 C 247.296875 233.714844 222.683594 175.714844 203.503906 131.609375 C 203.328125 131.207031 203.160156 130.851562 202.996094 130.527344 C 229.910156 126.105469 218.914062 89.347656 209.714844 74.121094 C 198.355469 55.410156 142.65625 7.472656 100.027344 24.136719 C 100.027344 24.136719 130.703125 52.035156 139.664062 105.617188 C 142.582031 130.257812 163.609375 156.609375 185.582031 136.234375 C 185.570312 136.875 185.691406 137.609375 185.980469 138.460938 C 201.8125 183.875 223.082031 243.179688 238.914062 288.59375 C 241.074219 294.929688 249.214844 297.558594 257.105469 294.480469 C 264.992188 291.394531 269.1875 283.9375 266.476562 277.820312 " fill-opacity="1" fill-rule="nonzero"/></g></svg>